# Blender 3.4.1
# www.blender.org
mtllib carmackCube.mtl
o Cube
v 1.000000 -0.999999 -1.000001
v 1.000000 -1.000001 0.999999
v 1.000000 1.681327 -0.999999
v 0.994523 1.681428 1.005724
v -1.000000 -0.999999 -1.000001
v -1.000000 -1.000001 0.999999
v -1.000000 1.681327 -0.999999
v -1.000000 1.681326 1.000001
v 0.994523 1.681428 1.005724
v -1.000000 1.681326 1.000001
v 1.000000 -1.000001 0.999999
v -1.000000 -1.000001 0.999999
vn -0.0000 -0.0000 -1.0000
vn -0.0000 1.0000 -0.0000
vn -1.0000 -0.0000 -0.0000
vn 1.0000 0.0010 0.0014
vn -0.0000 -1.0000 -0.0000
vn -0.0014 -0.0011 1.0000
vt -0.003932 0.002852
vt 0.975265 0.035609
vt 0.227594 0.162594
vt 0.089522 0.162594
vt 0.015293 0.035609
vt 0.250043 0.500000
vt -0.003932 1.001658
vt 0.199936 0.871670
vt 0.975265 0.995580
vt 0.039475 0.871670
vt 0.250043 0.749957
vt 0.015294 0.995580
vt 0.994873 0.002852
vt 0.008441 0.008550
vt 0.227593 0.024522
vt 0.985816 0.008550
vt 0.089522 0.024522
vt 0.250043 0.250043
vt 0.994873 1.001657
vt 0.199936 0.974244
vt 0.008442 0.985924
vt 0.039475 0.974244
vt 0.985817 0.985924
vt 0.250044 0.999913
vt 0.994925 1.002695
vt 0.250043 0.749957
vt 0.015294 0.995580
vt 0.985817 0.985924
vt 0.010053 1.002695
vt 0.250044 0.999913
vt 0.994925 0.017822
vt 0.015293 0.035609
vt 0.250043 0.500000
vt 0.985816 0.008550
vt 0.010053 0.017823
vt 0.250043 0.250043
s 0
usemtl Material.002
f 1/1/1 5/13/1 7/19/1 3/7/1
f 4/10/2 3/8/2 7/20/2 8/22/2
f 8/23/3 7/21/3 5/14/3 6/16/3
f 8/23/2 6/16/2 12/34/2 10/28/2
f 2/5/4 1/2/4 3/9/4 4/12/4
f 6/17/5 5/15/5 1/3/5 2/4/5
f 12/35/6 11/31/6 9/25/6 10/29/6
f 4/11/2 8/24/2 10/30/2 9/26/2
f 2/5/2 4/12/2 9/27/2 11/32/2
f 6/18/2 2/6/2 11/33/2 12/36/2
