# Blender v3.4.1 OBJ File: 'Eve.blend'
# www.blender.org
mtllib Antena.mtl
o Antena_Cylinder.006
v 0.014775 0.138839 0.298715
v 0.014775 0.319765 0.285464
v 0.010169 0.138839 0.298261
v 0.012754 0.319765 0.285265
v 0.005740 0.138839 0.296917
v 0.010810 0.319765 0.284676
v 0.001658 0.138839 0.294735
v 0.009019 0.319765 0.283718
v -0.001920 0.138839 0.291799
v 0.007449 0.319765 0.282430
v -0.004856 0.138839 0.288221
v 0.006161 0.319765 0.280860
v -0.007038 0.138839 0.284139
v 0.005203 0.319765 0.279069
v -0.008382 0.138839 0.279710
v 0.004614 0.319765 0.277125
v -0.008835 0.138839 0.275104
v 0.004415 0.319765 0.275104
v -0.008382 0.138839 0.270498
v 0.004614 0.319765 0.273083
v -0.007038 0.138839 0.266069
v 0.005203 0.319765 0.271140
v -0.004856 0.138839 0.261987
v 0.006161 0.319765 0.269348
v -0.001920 0.138839 0.258409
v 0.007449 0.319765 0.267778
v 0.001658 0.138839 0.255473
v 0.009019 0.319765 0.266490
v 0.005740 0.138839 0.253291
v 0.010810 0.319765 0.265533
v 0.010169 0.138839 0.251947
v 0.012754 0.319765 0.264943
v 0.014775 0.138839 0.251494
v 0.014775 0.319765 0.264744
v 0.019381 0.138839 0.251947
v 0.016796 0.319765 0.264943
v 0.023810 0.138839 0.253291
v 0.018740 0.319765 0.265533
v 0.027892 0.138839 0.255473
v 0.020531 0.319765 0.266490
v 0.031470 0.138839 0.258409
v 0.022101 0.319765 0.267778
v 0.034406 0.138839 0.261987
v 0.023389 0.319765 0.269348
v 0.036588 0.138839 0.266069
v 0.024346 0.319765 0.271140
v 0.037932 0.138839 0.270498
v 0.024936 0.319765 0.273083
v 0.038385 0.138839 0.275104
v 0.025135 0.319765 0.275104
v 0.037932 0.138839 0.279710
v 0.024936 0.319765 0.277125
v 0.036588 0.138839 0.284139
v 0.024346 0.319765 0.279069
v 0.034406 0.138839 0.288221
v 0.023389 0.319765 0.280860
v 0.031470 0.138839 0.291799
v 0.022101 0.319765 0.282430
v 0.027892 0.138839 0.294735
v 0.020531 0.319765 0.283718
v 0.023810 0.138839 0.296917
v 0.018740 0.319765 0.284676
v 0.019381 0.138839 0.298261
v 0.016796 0.319765 0.285265
v 0.011881 0.314198 0.289654
v 0.014775 0.314198 0.289939
v 0.009098 0.314198 0.288810
v 0.006533 0.314198 0.287439
v 0.004285 0.314198 0.285594
v 0.002440 0.314198 0.283346
v 0.001069 0.314198 0.280781
v 0.000225 0.314198 0.277998
v -0.000060 0.314198 0.275104
v 0.000225 0.314198 0.272210
v 0.001069 0.314198 0.269427
v 0.002440 0.314198 0.266862
v 0.004285 0.314198 0.264614
v 0.006533 0.314198 0.262769
v 0.009098 0.314198 0.261398
v 0.011881 0.314198 0.260554
v 0.014775 0.314198 0.260269
v 0.017669 0.314198 0.260554
v 0.020452 0.314198 0.261398
v 0.023017 0.314198 0.262769
v 0.025265 0.314198 0.264614
v 0.027110 0.314198 0.266862
v 0.028481 0.314198 0.269427
v 0.029325 0.314198 0.272210
v 0.029610 0.314198 0.275104
v 0.029325 0.314198 0.277998
v 0.028481 0.314198 0.280781
v 0.027110 0.314198 0.283346
v 0.025265 0.314198 0.285594
v 0.023017 0.314198 0.287439
v 0.020452 0.314198 0.288810
v 0.017669 0.314198 0.289654
v 0.013264 0.515533 0.282700
v 0.014775 0.515533 0.282848
v 0.011811 0.515533 0.282259
v 0.010472 0.515533 0.281543
v 0.009299 0.515533 0.280580
v 0.008336 0.515533 0.279407
v 0.007620 0.515533 0.278068
v 0.007179 0.515533 0.276615
v 0.007031 0.515533 0.275104
v 0.007179 0.515533 0.273593
v 0.007620 0.515533 0.272141
v 0.008336 0.515533 0.270802
v 0.009299 0.515533 0.269628
v 0.010472 0.515533 0.268665
v 0.011811 0.515533 0.267949
v 0.013264 0.515533 0.267509
v 0.014775 0.515533 0.267360
v 0.016286 0.515533 0.267509
v 0.017738 0.515533 0.267949
v 0.019077 0.515533 0.268665
v 0.020251 0.515533 0.269628
v 0.021214 0.515533 0.270802
v 0.021930 0.515533 0.272141
v 0.022370 0.515533 0.273593
v 0.022519 0.515533 0.275104
v 0.022370 0.515533 0.276615
v 0.021930 0.515533 0.278068
v 0.021214 0.515533 0.279407
v 0.020251 0.515533 0.280580
v 0.019077 0.515533 0.281543
v 0.017738 0.515533 0.282259
v 0.016286 0.515533 0.282700
vt 1.000000 0.500000
vt 1.000000 1.000000
vt 0.968750 1.000000
vt 0.968750 0.500000
vt 0.937500 1.000000
vt 0.937500 0.500000
vt 0.906250 1.000000
vt 0.906250 0.500000
vt 0.875000 1.000000
vt 0.875000 0.500000
vt 0.843750 1.000000
vt 0.843750 0.500000
vt 0.812500 1.000000
vt 0.812500 0.500000
vt 0.781250 1.000000
vt 0.781250 0.500000
vt 0.750000 1.000000
vt 0.750000 0.500000
vt 0.718750 1.000000
vt 0.718750 0.500000
vt 0.687500 1.000000
vt 0.687500 0.500000
vt 0.656250 1.000000
vt 0.656250 0.500000
vt 0.625000 1.000000
vt 0.625000 0.500000
vt 0.593750 1.000000
vt 0.593750 0.500000
vt 0.562500 1.000000
vt 0.562500 0.500000
vt 0.531250 1.000000
vt 0.531250 0.500000
vt 0.500000 1.000000
vt 0.500000 0.500000
vt 0.468750 1.000000
vt 0.468750 0.500000
vt 0.437500 1.000000
vt 0.437500 0.500000
vt 0.406250 1.000000
vt 0.406250 0.500000
vt 0.375000 1.000000
vt 0.375000 0.500000
vt 0.343750 1.000000
vt 0.343750 0.500000
vt 0.312500 1.000000
vt 0.312500 0.500000
vt 0.281250 1.000000
vt 0.281250 0.500000
vt 0.250000 1.000000
vt 0.250000 0.500000
vt 0.218750 1.000000
vt 0.218750 0.500000
vt 0.187500 1.000000
vt 0.187500 0.500000
vt 0.156250 1.000000
vt 0.156250 0.500000
vt 0.125000 1.000000
vt 0.125000 0.500000
vt 0.093750 1.000000
vt 0.093750 0.500000
vt 0.062500 1.000000
vt 0.062500 0.500000
vt 0.275512 0.378258
vt 0.250000 0.380771
vt 0.250000 0.380771
vt 0.275512 0.378258
vt 0.031250 1.000000
vt 0.031250 0.500000
vt 0.000000 1.000000
vt 0.000000 0.500000
vt 0.750000 0.490000
vt 0.796822 0.485388
vt 0.841844 0.471731
vt 0.883337 0.449553
vt 0.919706 0.419706
vt 0.949553 0.383337
vt 0.971731 0.341844
vt 0.985388 0.296822
vt 0.990000 0.250000
vt 0.985388 0.203178
vt 0.971731 0.158156
vt 0.949553 0.116663
vt 0.919706 0.080294
vt 0.883337 0.050447
vt 0.841844 0.028269
vt 0.796822 0.014612
vt 0.750000 0.010000
vt 0.703178 0.014612
vt 0.658156 0.028269
vt 0.616663 0.050447
vt 0.580294 0.080294
vt 0.550447 0.116663
vt 0.528269 0.158156
vt 0.514612 0.203178
vt 0.510000 0.250000
vt 0.514612 0.296822
vt 0.528269 0.341844
vt 0.550447 0.383337
vt 0.580294 0.419706
vt 0.616663 0.449553
vt 0.658156 0.471731
vt 0.703178 0.485388
vt 0.296822 0.485388
vt 0.250000 0.490000
vt 0.300044 0.370816
vt 0.341844 0.471731
vt 0.322652 0.358732
vt 0.383337 0.449553
vt 0.342469 0.342469
vt 0.419706 0.419706
vt 0.358732 0.322652
vt 0.449553 0.383337
vt 0.370816 0.300044
vt 0.471731 0.341844
vt 0.378258 0.275512
vt 0.485388 0.296822
vt 0.380770 0.250000
vt 0.490000 0.250000
vt 0.378258 0.224488
vt 0.485388 0.203178
vt 0.370816 0.199956
vt 0.471731 0.158156
vt 0.358732 0.177348
vt 0.449553 0.116663
vt 0.342469 0.157531
vt 0.419706 0.080294
vt 0.322652 0.141268
vt 0.383337 0.050447
vt 0.300044 0.129184
vt 0.341844 0.028269
vt 0.275512 0.121742
vt 0.296822 0.014612
vt 0.250000 0.119230
vt 0.250000 0.010000
vt 0.224488 0.121742
vt 0.203178 0.014612
vt 0.199956 0.129184
vt 0.158156 0.028269
vt 0.177348 0.141268
vt 0.116663 0.050447
vt 0.157531 0.157531
vt 0.080294 0.080294
vt 0.141268 0.177348
vt 0.050447 0.116663
vt 0.129184 0.199956
vt 0.028269 0.158156
vt 0.121742 0.224488
vt 0.014612 0.203178
vt 0.119229 0.250000
vt 0.010000 0.250000
vt 0.121742 0.275512
vt 0.014612 0.296822
vt 0.129184 0.300044
vt 0.028269 0.341844
vt 0.141268 0.322652
vt 0.050447 0.383337
vt 0.157531 0.342469
vt 0.080294 0.419706
vt 0.177348 0.358732
vt 0.116663 0.449553
vt 0.199956 0.370816
vt 0.158156 0.471731
vt 0.224488 0.378258
vt 0.203178 0.485388
vt 0.224488 0.378258
vt 0.199956 0.370816
vt 0.177348 0.358732
vt 0.157531 0.342469
vt 0.141268 0.322652
vt 0.129184 0.300044
vt 0.121742 0.275512
vt 0.119229 0.250000
vt 0.121742 0.224488
vt 0.129184 0.199956
vt 0.141268 0.177348
vt 0.157531 0.157531
vt 0.177348 0.141268
vt 0.199956 0.129184
vt 0.224488 0.121742
vt 0.250000 0.119230
vt 0.275512 0.121742
vt 0.300044 0.129184
vt 0.322652 0.141268
vt 0.342469 0.157531
vt 0.358732 0.177348
vt 0.370816 0.199956
vt 0.378258 0.224488
vt 0.380770 0.250000
vt 0.378258 0.275512
vt 0.370816 0.300044
vt 0.358732 0.322652
vt 0.342469 0.342469
vt 0.322652 0.358732
vt 0.300044 0.370816
vn 0.0000 0.0500 0.9988
vn -0.1948 0.0500 0.9796
vn -0.3822 0.0500 0.9227
vn -0.5549 0.0500 0.8304
vn -0.7062 0.0500 0.7062
vn -0.8304 0.0500 0.5549
vn -0.9227 0.0500 0.3822
vn -0.9796 0.0500 0.1948
vn -0.9988 0.0500 -0.0000
vn -0.9796 0.0500 -0.1948
vn -0.9227 0.0500 -0.3822
vn -0.8304 0.0500 -0.5549
vn -0.7062 0.0500 -0.7062
vn -0.5549 0.0500 -0.8304
vn -0.3822 0.0500 -0.9227
vn -0.1948 0.0500 -0.9796
vn -0.0000 0.0500 -0.9988
vn 0.1948 0.0500 -0.9796
vn 0.3822 0.0500 -0.9227
vn 0.5549 0.0500 -0.8304
vn 0.7062 0.0500 -0.7062
vn 0.8304 0.0500 -0.5549
vn 0.9227 0.0500 -0.3822
vn 0.9796 0.0500 -0.1948
vn 0.9988 0.0500 -0.0000
vn 0.9796 0.0500 0.1948
vn 0.9227 0.0500 0.3822
vn 0.8304 0.0500 0.5549
vn 0.7062 0.0500 0.7062
vn 0.5549 0.0500 0.8304
vn 0.3822 0.0500 0.9227
vn -0.1951 0.0134 0.9807
vn 0.0000 0.0134 0.9999
vn 0.1948 0.0500 0.9796
vn 0.0000 -1.0000 0.0000
vn -0.0000 0.6265 0.7794
vn -0.1521 0.6265 0.7644
vn -0.1520 0.6265 0.7644
vn -0.2983 0.6265 0.7201
vn -0.4330 0.6265 0.6481
vn -0.5511 0.6265 0.5511
vn -0.6481 0.6265 0.4330
vn -0.7201 0.6265 0.2983
vn -0.7644 0.6265 0.1521
vn -0.7794 0.6265 -0.0000
vn -0.7644 0.6265 -0.1521
vn -0.7201 0.6265 -0.2983
vn -0.6481 0.6265 -0.4330
vn -0.5511 0.6265 -0.5511
vn -0.4330 0.6265 -0.6481
vn -0.2983 0.6265 -0.7201
vn -0.1521 0.6265 -0.7644
vn 0.0000 0.6265 -0.7794
vn 0.1521 0.6265 -0.7644
vn 0.2983 0.6265 -0.7201
vn 0.4330 0.6265 -0.6481
vn 0.5511 0.6265 -0.5511
vn 0.6481 0.6265 -0.4330
vn 0.7201 0.6265 -0.2983
vn 0.7644 0.6265 -0.1521
vn 0.7794 0.6265 -0.0000
vn 0.7644 0.6265 0.1521
vn 0.7201 0.6265 0.2983
vn 0.6481 0.6265 0.4330
vn 0.5511 0.6265 0.5511
vn 0.4330 0.6265 0.6481
vn 0.2983 0.6265 0.7201
vn 0.1521 0.6265 0.7644
vn 0.0000 1.0000 0.0000
vn 0.7070 0.0134 0.7070
vn 0.8314 0.0134 0.5555
vn -0.1951 0.0134 -0.9807
vn -0.3826 0.0134 -0.9238
vn -0.3826 0.0134 0.9238
vn 0.5555 0.0134 0.8314
vn 0.0000 0.0134 -0.9999
vn -0.5555 0.0134 0.8314
vn 0.3826 0.0134 0.9238
vn 0.1951 0.0134 -0.9807
vn -0.7070 0.0134 0.7070
vn 0.1951 0.0134 0.9807
vn 0.3826 0.0134 -0.9238
vn -0.8314 0.0134 0.5555
vn 0.5555 0.0134 -0.8314
vn -0.9238 0.0134 0.3826
vn 0.7070 0.0134 -0.7070
vn -0.9807 0.0134 0.1951
vn 0.8314 0.0134 -0.5555
vn -0.9999 0.0134 0.0000
vn 0.9238 0.0134 -0.3827
vn -0.9807 0.0134 -0.1951
vn 0.9807 0.0134 -0.1951
vn -0.9238 0.0134 -0.3827
vn 0.9999 0.0134 0.0000
vn -0.8314 0.0134 -0.5555
vn 0.9807 0.0134 0.1951
vn -0.7070 0.0134 -0.7070
vn 0.9238 0.0134 0.3826
vn -0.5555 0.0134 -0.8314
usemtl Frame
s 1
f 1/1/1 66/2/1 65/3/2 3/4/2
f 3/4/2 65/3/2 67/5/3 5/6/3
f 5/6/3 67/5/3 68/7/4 7/8/4
f 7/8/4 68/7/4 69/9/5 9/10/5
f 9/10/5 69/9/5 70/11/6 11/12/6
f 11/12/6 70/11/6 71/13/7 13/14/7
f 13/14/7 71/13/7 72/15/8 15/16/8
f 15/16/8 72/15/8 73/17/9 17/18/9
f 17/18/9 73/17/9 74/19/10 19/20/10
f 19/20/10 74/19/10 75/21/11 21/22/11
f 21/22/11 75/21/11 76/23/12 23/24/12
f 23/24/12 76/23/12 77/25/13 25/26/13
f 25/26/13 77/25/13 78/27/14 27/28/14
f 27/28/14 78/27/14 79/29/15 29/30/15
f 29/30/15 79/29/15 80/31/16 31/32/16
f 31/32/16 80/31/16 81/33/17 33/34/17
f 33/34/17 81/33/17 82/35/18 35/36/18
f 35/36/18 82/35/18 83/37/19 37/38/19
f 37/38/19 83/37/19 84/39/20 39/40/20
f 39/40/20 84/39/20 85/41/21 41/42/21
f 41/42/21 85/41/21 86/43/22 43/44/22
f 43/44/22 86/43/22 87/45/23 45/46/23
f 45/46/23 87/45/23 88/47/24 47/48/24
f 47/48/24 88/47/24 89/49/25 49/50/25
f 49/50/25 89/49/25 90/51/26 51/52/26
f 51/52/26 90/51/26 91/53/27 53/54/27
f 53/54/27 91/53/27 92/55/28 55/56/28
f 55/56/28 92/55/28 93/57/29 57/58/29
f 57/58/29 93/57/29 94/59/30 59/60/30
f 59/60/30 94/59/30 95/61/31 61/62/31
f 4/63/32 2/64/33 98/65/33 97/66/32
f 61/62/31 95/61/31 96/67/34 63/68/34
f 63/68/34 96/67/34 66/69/1 1/70/1
f 1/71/35 3/72/35 5/73/35 7/74/35 9/75/35 11/76/35 13/77/35 15/78/35 17/79/35 19/80/35 21/81/35 23/82/35 25/83/35 27/84/35 29/85/35 31/86/35 33/87/35 35/88/35 37/89/35 39/90/35 41/91/35 43/92/35 45/93/35 47/94/35 49/95/35 51/96/35 53/97/35 55/98/35 57/99/35 59/100/35 61/101/35 63/102/35
f 2/64/36 4/63/37 65/103/38 66/104/36
f 4/63/37 6/105/39 67/106/39 65/103/38
f 6/105/39 8/107/40 68/108/40 67/106/39
f 8/107/40 10/109/41 69/110/41 68/108/40
f 10/109/41 12/111/42 70/112/42 69/110/41
f 12/111/42 14/113/43 71/114/43 70/112/42
f 14/113/43 16/115/44 72/116/44 71/114/43
f 16/115/44 18/117/45 73/118/45 72/116/44
f 18/117/45 20/119/46 74/120/46 73/118/45
f 20/119/46 22/121/47 75/122/47 74/120/46
f 22/121/47 24/123/48 76/124/48 75/122/47
f 24/123/48 26/125/49 77/126/49 76/124/48
f 26/125/49 28/127/50 78/128/50 77/126/49
f 28/127/50 30/129/51 79/130/51 78/128/50
f 30/129/51 32/131/52 80/132/52 79/130/51
f 32/131/52 34/133/53 81/134/53 80/132/52
f 34/133/53 36/135/54 82/136/54 81/134/53
f 36/135/54 38/137/55 83/138/55 82/136/54
f 38/137/55 40/139/56 84/140/56 83/138/55
f 40/139/56 42/141/57 85/142/57 84/140/56
f 42/141/57 44/143/58 86/144/58 85/142/57
f 44/143/58 46/145/59 87/146/59 86/144/58
f 46/145/59 48/147/60 88/148/60 87/146/59
f 48/147/60 50/149/61 89/150/61 88/148/60
f 50/149/61 52/151/62 90/152/62 89/150/61
f 52/151/62 54/153/63 91/154/63 90/152/62
f 54/153/63 56/155/64 92/156/64 91/154/63
f 56/155/64 58/157/65 93/158/65 92/156/64
f 58/157/65 60/159/66 94/160/66 93/158/65
f 60/159/66 62/161/67 95/162/67 94/160/66
f 62/161/67 64/163/68 96/164/68 95/162/67
f 64/163/68 2/64/36 66/104/36 96/164/68
f 97/66/69 98/65/69 128/165/69 127/166/69 126/167/69 125/168/69 124/169/69 123/170/69 122/171/69 121/172/69 120/173/69 119/174/69 118/175/69 117/176/69 116/177/69 115/178/69 114/179/69 113/180/69 112/181/69 111/182/69 110/183/69 109/184/69 108/185/69 107/186/69 106/187/69 105/188/69 104/189/69 103/190/69 102/191/69 101/192/69 100/193/69 99/194/69
f 58/157/70 56/155/71 124/169/71 125/168/70
f 32/131/72 30/129/73 111/182/73 112/181/72
f 6/105/74 4/63/32 97/66/32 99/194/74
f 60/159/75 58/157/70 125/168/70 126/167/75
f 34/133/76 32/131/72 112/181/72 113/180/76
f 8/107/77 6/105/74 99/194/74 100/193/77
f 62/161/78 60/159/75 126/167/75 127/166/78
f 36/135/79 34/133/76 113/180/76 114/179/79
f 10/109/80 8/107/77 100/193/77 101/192/80
f 64/163/81 62/161/78 127/166/78 128/165/81
f 38/137/82 36/135/79 114/179/79 115/178/82
f 12/111/83 10/109/80 101/192/80 102/191/83
f 2/64/33 64/163/81 128/165/81 98/65/33
f 40/139/84 38/137/82 115/178/82 116/177/84
f 14/113/85 12/111/83 102/191/83 103/190/85
f 42/141/86 40/139/84 116/177/84 117/176/86
f 16/115/87 14/113/85 103/190/85 104/189/87
f 44/143/88 42/141/86 117/176/86 118/175/88
f 18/117/89 16/115/87 104/189/87 105/188/89
f 46/145/90 44/143/88 118/175/88 119/174/90
f 20/119/91 18/117/89 105/188/89 106/187/91
f 48/147/92 46/145/90 119/174/90 120/173/92
f 22/121/93 20/119/91 106/187/91 107/186/93
f 50/149/94 48/147/92 120/173/92 121/172/94
f 24/123/95 22/121/93 107/186/93 108/185/95
f 52/151/96 50/149/94 121/172/94 122/171/96
f 26/125/97 24/123/95 108/185/95 109/184/97
f 54/153/98 52/151/96 122/171/96 123/170/98
f 28/127/99 26/125/97 109/184/97 110/183/99
f 56/155/71 54/153/98 123/170/98 124/169/71
f 30/129/73 28/127/99 110/183/99 111/182/73
