# Blender v3.4.1 OBJ File: 'Eve.blend'
# www.blender.org
mtllib smallEye.mtl
o smallEye_Cylinder.008
v 0.220087 0.170105 -0.144470
v 0.338778 0.170105 -0.135906
v 0.220087 0.163994 -0.143868
v 0.338778 0.165664 -0.135469
v 0.220087 0.158104 -0.142085
v 0.338778 0.161395 -0.134174
v 0.220087 0.152350 -0.139190
v 0.338778 0.157459 -0.132070
v 0.220087 0.146973 -0.135295
v 0.338778 0.154010 -0.129240
v 0.220087 0.142361 -0.130548
v 0.338778 0.151180 -0.125791
v 0.220087 0.138904 -0.125132
v 0.338778 0.149076 -0.121855
v 0.220087 0.136744 -0.119256
v 0.338778 0.147781 -0.117586
v 0.220087 0.135986 -0.113145
v 0.338778 0.147344 -0.113145
v 0.220087 0.136744 -0.107034
v 0.338778 0.147781 -0.108705
v 0.220087 0.138904 -0.101158
v 0.338778 0.149076 -0.104435
v 0.220087 0.142361 -0.095742
v 0.338778 0.151180 -0.100500
v 0.220087 0.146973 -0.090995
v 0.338778 0.154010 -0.097050
v 0.220087 0.152350 -0.087100
v 0.338778 0.157459 -0.094220
v 0.220087 0.158104 -0.084205
v 0.338778 0.161395 -0.092116
v 0.220087 0.163994 -0.082423
v 0.338778 0.165664 -0.090821
v 0.220087 0.170105 -0.081821
v 0.338778 0.170105 -0.090384
v 0.220087 0.176216 -0.082423
v 0.338778 0.174545 -0.090821
v 0.220087 0.182092 -0.084205
v 0.338778 0.178815 -0.092116
v 0.220087 0.187508 -0.087100
v 0.338778 0.182750 -0.094220
v 0.220087 0.192255 -0.090995
v 0.338778 0.186200 -0.097050
v 0.220087 0.196150 -0.095742
v 0.338778 0.189030 -0.100500
v 0.220087 0.199045 -0.101158
v 0.338778 0.191134 -0.104435
v 0.220087 0.200827 -0.107034
v 0.338778 0.192429 -0.108705
v 0.220087 0.201429 -0.113145
v 0.338778 0.192866 -0.113145
v 0.220087 0.200827 -0.119256
v 0.338778 0.192429 -0.117586
v 0.220087 0.199045 -0.125132
v 0.338778 0.191134 -0.121855
v 0.220087 0.196150 -0.130548
v 0.338778 0.189030 -0.125791
v 0.220087 0.192255 -0.135295
v 0.338778 0.186200 -0.129240
v 0.220087 0.187508 -0.139190
v 0.338778 0.182750 -0.132070
v 0.220087 0.182092 -0.142085
v 0.338778 0.178815 -0.134174
v 0.220087 0.176216 -0.143868
v 0.338778 0.174545 -0.135469
v 0.357690 0.163994 -0.143868
v 0.357690 0.170105 -0.144470
v 0.357690 0.158118 -0.142085
v 0.357690 0.152702 -0.139190
v 0.357690 0.147955 -0.135295
v 0.357690 0.144060 -0.130548
v 0.357690 0.141165 -0.125132
v 0.357690 0.139382 -0.119256
v 0.357690 0.138780 -0.113145
v 0.357690 0.139382 -0.107034
v 0.357690 0.141165 -0.101158
v 0.357690 0.144060 -0.095742
v 0.357690 0.147955 -0.090995
v 0.357690 0.152702 -0.087100
v 0.357690 0.158118 -0.084205
v 0.357690 0.163994 -0.082423
v 0.357690 0.170105 -0.081821
v 0.357690 0.176216 -0.082423
v 0.357690 0.182092 -0.084205
v 0.357690 0.187508 -0.087100
v 0.357690 0.192255 -0.090995
v 0.357690 0.196150 -0.095742
v 0.357690 0.199045 -0.101158
v 0.357690 0.200827 -0.107034
v 0.357690 0.201429 -0.113145
v 0.357690 0.200827 -0.119256
v 0.357690 0.199045 -0.125132
v 0.357690 0.196150 -0.130548
v 0.357690 0.192255 -0.135295
v 0.357690 0.187508 -0.139190
v 0.357690 0.182092 -0.142085
v 0.357690 0.176216 -0.143868
v 0.354426 0.170105 -0.140188
v 0.354426 0.164829 -0.139668
v 0.354426 0.159756 -0.138129
v 0.354426 0.155081 -0.135630
v 0.354426 0.150983 -0.132267
v 0.354426 0.147620 -0.128169
v 0.354426 0.145121 -0.123494
v 0.354426 0.143582 -0.118421
v 0.354426 0.143062 -0.113145
v 0.354426 0.143582 -0.107869
v 0.354426 0.145121 -0.102796
v 0.354426 0.147620 -0.098121
v 0.354426 0.150983 -0.094023
v 0.354426 0.155081 -0.090660
v 0.354426 0.159756 -0.088161
v 0.354426 0.164829 -0.086622
v 0.354426 0.170105 -0.086102
v 0.354426 0.175381 -0.086622
v 0.354426 0.180454 -0.088161
v 0.354426 0.185129 -0.090660
v 0.354426 0.189227 -0.094023
v 0.354426 0.192590 -0.098121
v 0.354426 0.195089 -0.102796
v 0.354426 0.196628 -0.107869
v 0.354426 0.197148 -0.113145
v 0.354426 0.196628 -0.118421
v 0.354426 0.195089 -0.123494
v 0.354426 0.192590 -0.128169
v 0.354426 0.189227 -0.132267
v 0.354426 0.185129 -0.135630
v 0.354426 0.180454 -0.138129
v 0.354426 0.175381 -0.139668
vt 1.000000 0.500000
vt 1.000000 1.000000
vt 0.968750 1.000000
vt 0.968750 0.500000
vt 0.937500 1.000000
vt 0.937500 0.500000
vt 0.906250 1.000000
vt 0.906250 0.500000
vt 0.875000 1.000000
vt 0.875000 0.500000
vt 0.843750 1.000000
vt 0.843750 0.500000
vt 0.812500 1.000000
vt 0.812500 0.500000
vt 0.781250 1.000000
vt 0.781250 0.500000
vt 0.750000 1.000000
vt 0.750000 0.500000
vt 0.718750 1.000000
vt 0.718750 0.500000
vt 0.687500 1.000000
vt 0.687500 0.500000
vt 0.656250 1.000000
vt 0.656250 0.500000
vt 0.625000 1.000000
vt 0.625000 0.500000
vt 0.593750 1.000000
vt 0.593750 0.500000
vt 0.562500 1.000000
vt 0.562500 0.500000
vt 0.531250 1.000000
vt 0.531250 0.500000
vt 0.500000 1.000000
vt 0.500000 0.500000
vt 0.468750 1.000000
vt 0.468750 0.500000
vt 0.437500 1.000000
vt 0.437500 0.500000
vt 0.406250 1.000000
vt 0.406250 0.500000
vt 0.375000 1.000000
vt 0.375000 0.500000
vt 0.343750 1.000000
vt 0.343750 0.500000
vt 0.312500 1.000000
vt 0.312500 0.500000
vt 0.281250 1.000000
vt 0.281250 0.500000
vt 0.250000 1.000000
vt 0.250000 0.500000
vt 0.218750 1.000000
vt 0.218750 0.500000
vt 0.187500 1.000000
vt 0.187500 0.500000
vt 0.156250 1.000000
vt 0.156250 0.500000
vt 0.125000 1.000000
vt 0.125000 0.500000
vt 0.093750 1.000000
vt 0.093750 0.500000
vt 0.062500 1.000000
vt 0.062500 0.500000
vt 0.031250 1.000000
vt 0.031250 0.500000
vt 0.000000 1.000000
vt 0.000000 0.500000
vt 0.750000 0.490000
vt 0.796822 0.485388
vt 0.841844 0.471731
vt 0.883337 0.449553
vt 0.919706 0.419706
vt 0.949553 0.383337
vt 0.971731 0.341844
vt 0.985388 0.296822
vt 0.990000 0.250000
vt 0.985388 0.203178
vt 0.971731 0.158156
vt 0.949553 0.116663
vt 0.919706 0.080294
vt 0.883337 0.050447
vt 0.841844 0.028269
vt 0.796822 0.014612
vt 0.750000 0.010000
vt 0.703178 0.014612
vt 0.658156 0.028269
vt 0.616663 0.050447
vt 0.580294 0.080294
vt 0.550447 0.116663
vt 0.528269 0.158156
vt 0.514612 0.203178
vt 0.510000 0.250000
vt 0.514612 0.296822
vt 0.528269 0.341844
vt 0.550447 0.383337
vt 0.580294 0.419706
vt 0.616663 0.449553
vt 0.658156 0.471731
vt 0.703178 0.485388
vt 0.250000 0.427338
vt 0.284597 0.423930
vt 0.296822 0.485388
vt 0.250000 0.490000
vt 0.317864 0.413839
vt 0.341844 0.471731
vt 0.348523 0.397451
vt 0.383337 0.449553
vt 0.375397 0.375397
vt 0.419706 0.419706
vt 0.397451 0.348523
vt 0.449553 0.383337
vt 0.413839 0.317864
vt 0.471731 0.341844
vt 0.423930 0.284597
vt 0.485388 0.296822
vt 0.427338 0.250000
vt 0.490000 0.250000
vt 0.423930 0.215403
vt 0.485388 0.203178
vt 0.413839 0.182136
vt 0.471731 0.158156
vt 0.397451 0.151477
vt 0.449553 0.116663
vt 0.375397 0.124603
vt 0.419706 0.080294
vt 0.348523 0.102549
vt 0.383337 0.050447
vt 0.317864 0.086161
vt 0.341844 0.028269
vt 0.284597 0.076070
vt 0.296822 0.014612
vt 0.250000 0.072662
vt 0.250000 0.010000
vt 0.215403 0.076070
vt 0.203178 0.014612
vt 0.182136 0.086161
vt 0.158156 0.028269
vt 0.151477 0.102549
vt 0.116663 0.050447
vt 0.124603 0.124603
vt 0.080294 0.080294
vt 0.102549 0.151477
vt 0.050447 0.116663
vt 0.086161 0.182136
vt 0.028269 0.158156
vt 0.076070 0.215403
vt 0.014612 0.203178
vt 0.072662 0.250000
vt 0.010000 0.250000
vt 0.076070 0.284597
vt 0.014612 0.296822
vt 0.086161 0.317864
vt 0.028269 0.341844
vt 0.102549 0.348523
vt 0.050447 0.383337
vt 0.124603 0.375397
vt 0.080294 0.419706
vt 0.151477 0.397451
vt 0.116663 0.449553
vt 0.182136 0.413839
vt 0.158156 0.471731
vt 0.215403 0.423930
vt 0.203178 0.485388
vt 0.227628 0.362472
vt 0.250000 0.364675
vt 0.206116 0.355946
vt 0.186290 0.345349
vt 0.168912 0.331088
vt 0.154651 0.313710
vt 0.144054 0.293884
vt 0.137528 0.272372
vt 0.135325 0.250000
vt 0.137528 0.227628
vt 0.144054 0.206116
vt 0.154651 0.186290
vt 0.168912 0.168912
vt 0.186290 0.154651
vt 0.206116 0.144054
vt 0.227628 0.137528
vt 0.250000 0.135325
vt 0.272372 0.137528
vt 0.293884 0.144054
vt 0.313710 0.154651
vt 0.331088 0.168912
vt 0.345349 0.186290
vt 0.355946 0.206116
vt 0.362472 0.227628
vt 0.364675 0.250000
vt 0.362472 0.272372
vt 0.355946 0.293884
vt 0.345349 0.313710
vt 0.331088 0.331088
vt 0.313710 0.345349
vt 0.293884 0.355946
vt 0.272372 0.362472
vn 0.0000 0.0000 -1.0000
vn 0.0000 -0.1949 -0.9808
vn 0.0003 -0.3767 -0.9264
vn 0.0003 -0.3767 -0.9263
vn 0.0018 -0.5371 -0.8435
vn 0.0018 -0.5373 -0.8434
vn 0.0051 -0.6800 -0.7332
vn 0.0051 -0.6804 -0.7328
vn 0.0099 -0.8074 -0.5899
vn 0.0099 -0.8080 -0.5891
vn 0.0147 -0.9099 -0.4145
vn 0.0147 -0.9103 -0.4137
vn 0.0183 -0.9763 -0.2158
vn 0.0184 -0.9764 -0.2152
vn 0.0197 -0.9998 0.0000
vn 0.0183 -0.9763 0.2158
vn 0.0184 -0.9764 0.2152
vn 0.0147 -0.9099 0.4145
vn 0.0147 -0.9103 0.4137
vn 0.0099 -0.8074 0.5899
vn 0.0099 -0.8080 0.5891
vn 0.0051 -0.6800 0.7332
vn 0.0051 -0.6804 0.7328
vn 0.0018 -0.5371 0.8435
vn 0.0018 -0.5373 0.8434
vn 0.0003 -0.3767 0.9264
vn 0.0003 -0.3767 0.9263
vn 0.0000 -0.1949 0.9808
vn -0.0000 0.0000 1.0000
vn -0.0000 0.1951 0.9808
vn -0.0000 0.3827 0.9239
vn -0.0000 0.5556 0.8315
vn -0.0000 0.7071 0.7071
vn -0.0000 0.8315 0.5556
vn -0.0000 0.9239 0.3827
vn -0.0000 0.9808 0.1951
vn -0.0000 1.0000 0.0000
vn -0.0000 0.9808 -0.1951
vn -0.0000 0.9239 -0.3827
vn -0.0000 0.8315 -0.5556
vn -0.0000 0.7071 -0.7071
vn -0.0000 0.5556 -0.8315
vn -0.0000 0.3827 -0.9239
vn -0.0000 0.1951 -0.9808
vn -1.0000 0.0000 0.0000
vn 0.7953 0.0000 0.6062
vn 0.7953 0.1183 0.5946
vn 0.7953 0.2320 0.5601
vn 0.7953 0.3368 0.5041
vn 0.7953 0.4287 0.4287
vn 0.7953 0.5041 0.3368
vn 0.7953 0.5601 0.2320
vn 0.7953 0.5946 0.1183
vn 0.7953 0.6062 -0.0000
vn 0.7953 0.5946 -0.1183
vn 0.7953 0.5601 -0.2320
vn 0.7953 0.5041 -0.3368
vn 0.7953 0.4287 -0.4287
vn 0.7953 0.3368 -0.5041
vn 0.7953 0.2320 -0.5601
vn 0.7953 0.1183 -0.5946
vn 0.7953 0.0000 -0.6062
vn 0.7953 -0.1183 -0.5946
vn 0.7953 -0.2320 -0.5601
vn 0.7953 -0.3368 -0.5041
vn 0.7953 -0.4287 -0.4287
vn 0.7953 -0.5041 -0.3368
vn 0.7953 -0.5601 -0.2320
vn 0.7953 -0.5946 -0.1183
vn 0.7953 -0.6062 -0.0000
vn 0.7953 -0.5946 0.1183
vn 0.7953 -0.5601 0.2320
vn 0.7953 -0.5041 0.3368
vn 0.7953 -0.4287 0.4287
vn 0.7953 -0.3368 0.5041
vn 0.7953 -0.2320 0.5601
vn 0.7953 -0.1183 0.5946
vn 0.2639 -0.1882 0.9460
vn 0.2639 0.0000 0.9645
vn 0.2639 -0.3691 0.8911
vn 0.2639 -0.5359 0.8020
vn 0.2639 -0.6820 0.6820
vn 0.2639 -0.8020 0.5359
vn 0.2639 -0.8911 0.3691
vn 0.2639 -0.9460 0.1882
vn 0.2639 -0.9645 0.0000
vn 0.2639 -0.9460 -0.1882
vn 0.2639 -0.8911 -0.3691
vn 0.2639 -0.8020 -0.5359
vn 0.2639 -0.6820 -0.6820
vn 0.2639 -0.5359 -0.8020
vn 0.2639 -0.3691 -0.8911
vn 0.2639 -0.1882 -0.9460
vn 0.2639 0.0000 -0.9645
vn 0.2639 0.1882 -0.9460
vn 0.2639 0.3691 -0.8911
vn 0.2639 0.5359 -0.8020
vn 0.2639 0.6820 -0.6820
vn 0.2639 0.8020 -0.5359
vn 0.2639 0.8911 -0.3691
vn 0.2639 0.9460 -0.1882
vn 0.2639 0.9645 0.0000
vn 0.2639 0.9460 0.1882
vn 0.2639 0.8911 0.3691
vn 0.2639 0.8020 0.5359
vn 0.2639 0.6820 0.6820
vn 0.2639 0.5359 0.8020
vn 0.2639 0.3691 0.8911
vn 0.2639 0.1882 0.9460
usemtl Frame.001
s 1
f 1/1/1 66/2/1 65/3/2 3/4/2
f 3/4/2 65/3/2 67/5/3 5/6/4
f 5/6/4 67/5/3 68/7/5 7/8/6
f 7/8/6 68/7/5 69/9/7 9/10/8
f 9/10/8 69/9/7 70/11/9 11/12/10
f 11/12/10 70/11/9 71/13/11 13/14/12
f 13/14/12 71/13/11 72/15/13 15/16/14
f 15/16/14 72/15/13 73/17/15 17/18/15
f 17/18/15 73/17/15 74/19/16 19/20/17
f 19/20/17 74/19/16 75/21/18 21/22/19
f 21/22/19 75/21/18 76/23/20 23/24/21
f 23/24/21 76/23/20 77/25/22 25/26/23
f 25/26/23 77/25/22 78/27/24 27/28/25
f 27/28/25 78/27/24 79/29/26 29/30/27
f 29/30/27 79/29/26 80/31/28 31/32/28
f 31/32/28 80/31/28 81/33/29 33/34/29
f 33/34/29 81/33/29 82/35/30 35/36/30
f 35/36/30 82/35/30 83/37/31 37/38/31
f 37/38/31 83/37/31 84/39/32 39/40/32
f 39/40/32 84/39/32 85/41/33 41/42/33
f 41/42/33 85/41/33 86/43/34 43/44/34
f 43/44/34 86/43/34 87/45/35 45/46/35
f 45/46/35 87/45/35 88/47/36 47/48/36
f 47/48/36 88/47/36 89/49/37 49/50/37
f 49/50/37 89/49/37 90/51/38 51/52/38
f 51/52/38 90/51/38 91/53/39 53/54/39
f 53/54/39 91/53/39 92/55/40 55/56/40
f 55/56/40 92/55/40 93/57/41 57/58/41
f 57/58/41 93/57/41 94/59/42 59/60/42
f 59/60/42 94/59/42 95/61/43 61/62/43
f 61/62/43 95/61/43 96/63/44 63/64/44
f 63/64/44 96/63/44 66/65/1 1/66/1
f 1/67/45 3/68/45 5/69/45 7/70/45 9/71/45 11/72/45 13/73/45 15/74/45 17/75/45 19/76/45 21/77/45 23/78/45 25/79/45 27/80/45 29/81/45 31/82/45 33/83/45 35/84/45 37/85/45 39/86/45 41/87/45 43/88/45 45/89/45 47/90/45 49/91/45 51/92/45 53/93/45 55/94/45 57/95/45 59/96/45 61/97/45 63/98/45
f 97/99/46 98/100/47 65/101/47 66/102/46
f 98/100/47 99/103/48 67/104/48 65/101/47
f 99/103/48 100/105/49 68/106/49 67/104/48
f 100/105/49 101/107/50 69/108/50 68/106/49
f 101/107/50 102/109/51 70/110/51 69/108/50
f 102/109/51 103/111/52 71/112/52 70/110/51
f 103/111/52 104/113/53 72/114/53 71/112/52
f 104/113/53 105/115/54 73/116/54 72/114/53
f 105/115/54 106/117/55 74/118/55 73/116/54
f 106/117/55 107/119/56 75/120/56 74/118/55
f 107/119/56 108/121/57 76/122/57 75/120/56
f 108/121/57 109/123/58 77/124/58 76/122/57
f 109/123/58 110/125/59 78/126/59 77/124/58
f 110/125/59 111/127/60 79/128/60 78/126/59
f 111/127/60 112/129/61 80/130/61 79/128/60
f 112/129/61 113/131/62 81/132/62 80/130/61
f 113/131/62 114/133/63 82/134/63 81/132/62
f 114/133/63 115/135/64 83/136/64 82/134/63
f 115/135/64 116/137/65 84/138/65 83/136/64
f 116/137/65 117/139/66 85/140/66 84/138/65
f 117/139/66 118/141/67 86/142/67 85/140/66
f 118/141/67 119/143/68 87/144/68 86/142/67
f 119/143/68 120/145/69 88/146/69 87/144/68
f 120/145/69 121/147/70 89/148/70 88/146/69
f 121/147/70 122/149/71 90/150/71 89/148/70
f 122/149/71 123/151/72 91/152/72 90/150/71
f 123/151/72 124/153/73 92/154/73 91/152/72
f 124/153/73 125/155/74 93/156/74 92/154/73
f 125/155/74 126/157/75 94/158/75 93/156/74
f 126/157/75 127/159/76 95/160/76 94/158/75
f 127/159/76 128/161/77 96/162/77 95/160/76
f 128/161/77 97/99/46 66/102/46 96/162/77
f 64/163/78 2/164/79 97/99/79 128/161/78
f 62/165/80 64/163/78 128/161/78 127/159/80
f 60/166/81 62/165/80 127/159/80 126/157/81
f 58/167/82 60/166/81 126/157/81 125/155/82
f 56/168/83 58/167/82 125/155/82 124/153/83
f 54/169/84 56/168/83 124/153/83 123/151/84
f 52/170/85 54/169/84 123/151/84 122/149/85
f 50/171/86 52/170/85 122/149/85 121/147/86
f 48/172/87 50/171/86 121/147/86 120/145/87
f 46/173/88 48/172/87 120/145/87 119/143/88
f 44/174/89 46/173/88 119/143/88 118/141/89
f 42/175/90 44/174/89 118/141/89 117/139/90
f 40/176/91 42/175/90 117/139/90 116/137/91
f 38/177/92 40/176/91 116/137/91 115/135/92
f 36/178/93 38/177/92 115/135/92 114/133/93
f 34/179/94 36/178/93 114/133/93 113/131/94
f 32/180/95 34/179/94 113/131/94 112/129/95
f 30/181/96 32/180/95 112/129/95 111/127/96
f 28/182/97 30/181/96 111/127/96 110/125/97
f 26/183/98 28/182/97 110/125/97 109/123/98
f 24/184/99 26/183/98 109/123/98 108/121/99
f 22/185/100 24/184/99 108/121/99 107/119/100
f 20/186/101 22/185/100 107/119/100 106/117/101
f 18/187/102 20/186/101 106/117/101 105/115/102
f 16/188/103 18/187/102 105/115/102 104/113/103
f 14/189/104 16/188/103 104/113/103 103/111/104
f 12/190/105 14/189/104 103/111/104 102/109/105
f 10/191/106 12/190/105 102/109/105 101/107/106
f 8/192/107 10/191/106 101/107/106 100/105/107
f 6/193/108 8/192/107 100/105/107 99/103/108
f 4/194/109 6/193/108 99/103/108 98/100/109
f 2/164/79 4/194/109 98/100/109 97/99/79
