# Blender v3.4.1 OBJ File: 'Eve.blend'
# www.blender.org
mtllib smallRed.mtl
o smallRed_Cylinder.001
v -0.135907 0.164090 -0.338778
v -0.135469 0.159649 -0.338778
v -0.134174 0.155379 -0.338778
v -0.132071 0.151444 -0.338778
v -0.129240 0.147995 -0.338778
v -0.125791 0.145164 -0.338778
v -0.121856 0.143061 -0.338778
v -0.117586 0.141766 -0.338778
v -0.113145 0.141328 -0.338778
v -0.108705 0.141766 -0.338778
v -0.104435 0.143061 -0.338778
v -0.100500 0.145164 -0.338778
v -0.097051 0.147995 -0.338778
v -0.094220 0.151444 -0.338778
v -0.092117 0.155379 -0.338778
v -0.090822 0.159649 -0.338778
v -0.090384 0.164090 -0.338778
v -0.090822 0.168530 -0.338778
v -0.092117 0.172800 -0.338778
v -0.094220 0.176735 -0.338778
v -0.097051 0.180184 -0.338778
v -0.100500 0.183015 -0.338778
v -0.104435 0.185118 -0.338778
v -0.108705 0.186414 -0.338778
v -0.113145 0.186851 -0.338778
v -0.117586 0.186414 -0.338778
v -0.121856 0.185118 -0.338778
v -0.125791 0.183015 -0.338778
v -0.129240 0.180184 -0.338778
v -0.132071 0.176735 -0.338778
v -0.134174 0.172800 -0.338778
v -0.135469 0.168530 -0.338778
vt 0.272372 0.362472
vt 0.250000 0.364675
vt 0.227628 0.362472
vt 0.206116 0.355946
vt 0.186290 0.345349
vt 0.168912 0.331088
vt 0.154651 0.313710
vt 0.144054 0.293884
vt 0.137528 0.272372
vt 0.135325 0.250000
vt 0.137528 0.227628
vt 0.144054 0.206116
vt 0.154651 0.186290
vt 0.168912 0.168912
vt 0.186290 0.154651
vt 0.206116 0.144054
vt 0.227628 0.137528
vt 0.250000 0.135325
vt 0.272372 0.137528
vt 0.293884 0.144054
vt 0.313710 0.154651
vt 0.331088 0.168912
vt 0.345349 0.186290
vt 0.355946 0.206116
vt 0.362472 0.227628
vt 0.364675 0.250000
vt 0.362472 0.272372
vt 0.355946 0.293884
vt 0.345349 0.313710
vt 0.331088 0.331088
vt 0.313710 0.345349
vt 0.293884 0.355946
vn 0.0000 0.0000 -1.0000
usemtl Material
s 1
f 2/1/1 1/2/1 32/3/1 31/4/1 30/5/1 29/6/1 28/7/1 27/8/1 26/9/1 25/10/1 24/11/1 23/12/1 22/13/1 21/14/1 20/15/1 19/16/1 18/17/1 17/18/1 16/19/1 15/20/1 14/21/1 13/22/1 12/23/1 11/24/1 10/25/1 9/26/1 8/27/1 7/28/1 6/29/1 5/30/1 4/31/1 3/32/1
