# Blender v3.4.1 OBJ File: 'robotarm.blend'
# www.blender.org
mtllib Claw1.mtl
o Claw1_Cylinder.013
v -0.189266 0.233937 0.232329
v 0.187313 0.234041 0.233802
v -0.189413 0.183972 0.273499
v 0.187166 0.184076 0.274972
v -0.189517 0.126935 0.304131
v 0.187061 0.127039 0.305604
v -0.189574 0.065018 0.323047
v 0.187005 0.065122 0.324520
v -0.189581 0.000600 0.329520
v 0.186997 0.000704 0.330993
v -0.189539 -0.063843 0.323301
v 0.187039 -0.063739 0.324774
v -0.189449 -0.125834 0.304630
v 0.187129 -0.125730 0.306103
v -0.189314 -0.182992 0.274224
v 0.187264 -0.182888 0.275697
v -0.189140 -0.233119 0.233251
v 0.187438 -0.233015 0.234724
v -0.188933 -0.274290 0.183286
v 0.187645 -0.274186 0.184760
v -0.188702 -0.304922 0.126250
v 0.187877 -0.304818 0.127723
v -0.188454 -0.323838 0.064333
v 0.188124 -0.323734 0.065806
v -0.188201 -0.330311 -0.000084
v 0.188378 -0.330207 0.001389
v -0.187950 -0.324092 -0.064527
v 0.188628 -0.323988 -0.063053
v -0.187713 -0.305421 -0.126517
v 0.188866 -0.305317 -0.125044
v -0.187498 -0.275014 -0.183675
v 0.189081 -0.274910 -0.182201
v -0.187313 -0.234041 -0.233802
v 0.189266 -0.233937 -0.232329
v -0.187166 -0.184076 -0.274972
v 0.189413 -0.183972 -0.273499
v -0.187061 -0.127039 -0.305604
v 0.189517 -0.126935 -0.304131
v -0.187005 -0.065122 -0.324520
v 0.189574 -0.065018 -0.323047
v -0.186997 -0.000704 -0.330993
v 0.189581 -0.000600 -0.329520
v -0.187039 0.063739 -0.324774
v 0.189539 0.063843 -0.323301
v -0.187129 0.125730 -0.306103
v 0.189449 0.125834 -0.304630
v -0.187264 0.182888 -0.275697
v 0.189314 0.182992 -0.274224
v -0.187438 0.233015 -0.234724
v 0.189140 0.233119 -0.233251
v -0.187645 0.274186 -0.184760
v 0.188933 0.274290 -0.183286
v -0.187877 0.304818 -0.127723
v 0.188702 0.304922 -0.126250
v -0.147363 0.991227 0.330392
v 0.144226 0.991308 0.331532
v -0.146253 0.946081 0.049858
v 0.145336 0.946161 0.050999
v -0.110611 1.694273 -0.145417
v 0.110809 1.694334 -0.144551
v -0.109794 1.623397 -0.349209
v 0.111626 1.623458 -0.348343
vt 0.906250 0.500000
vt 0.875000 0.500000
vt 0.875000 1.000000
vt 0.906250 1.000000
vt 0.843750 0.500000
vt 0.843750 1.000000
vt 0.812500 0.500000
vt 0.812500 1.000000
vt 0.781250 0.500000
vt 0.781250 1.000000
vt 0.750000 0.500000
vt 0.750000 1.000000
vt 0.718750 0.500000
vt 0.718750 1.000000
vt 0.687500 0.500000
vt 0.687500 1.000000
vt 0.656250 0.500000
vt 0.656250 1.000000
vt 0.625000 0.500000
vt 0.625000 1.000000
vt 0.593750 0.500000
vt 0.593750 1.000000
vt 0.562500 0.500000
vt 0.562500 1.000000
vt 0.531250 0.500000
vt 0.531250 1.000000
vt 0.500000 0.500000
vt 0.500000 1.000000
vt 0.468750 0.500000
vt 0.468750 1.000000
vt 0.437500 0.500000
vt 0.437500 1.000000
vt 0.406250 0.500000
vt 0.406250 1.000000
vt 0.375000 0.500000
vt 0.375000 1.000000
vt 0.343750 0.500000
vt 0.343750 1.000000
vt 0.312500 0.500000
vt 0.312500 1.000000
vt 0.281250 0.500000
vt 0.281250 1.000000
vt 0.250000 0.500000
vt 0.250000 1.000000
vt 0.218750 0.500000
vt 0.218750 1.000000
vt 0.187500 0.500000
vt 0.187500 1.000000
vt 0.156250 0.500000
vt 0.156250 1.000000
vt 0.125000 0.500000
vt 0.125000 1.000000
vt 0.093750 0.500000
vt 0.093750 1.000000
vt 0.383337 0.449553
vt 0.419706 0.419706
vt 0.449553 0.383337
vt 0.471731 0.341844
vt 0.485388 0.296822
vt 0.490000 0.250000
vt 0.485388 0.203178
vt 0.471731 0.158156
vt 0.449553 0.116663
vt 0.419706 0.080294
vt 0.383337 0.050447
vt 0.341844 0.028269
vt 0.296822 0.014612
vt 0.250000 0.010000
vt 0.203178 0.014612
vt 0.158156 0.028269
vt 0.116663 0.050447
vt 0.080294 0.080294
vt 0.050447 0.116663
vt 0.028269 0.158156
vt 0.014612 0.203178
vt 0.010000 0.250000
vt 0.014612 0.296822
vt 0.028269 0.341844
vt 0.050447 0.383337
vt 0.080294 0.419706
vt 0.116663 0.449553
vt 0.616663 0.449553
vt 0.580294 0.419706
vt 0.550447 0.383337
vt 0.528269 0.341844
vt 0.514612 0.296822
vt 0.510000 0.250000
vt 0.514612 0.203178
vt 0.528269 0.158156
vt 0.550447 0.116663
vt 0.580294 0.080294
vt 0.616663 0.050447
vt 0.658156 0.028269
vt 0.703178 0.014612
vt 0.750000 0.010000
vt 0.796822 0.014612
vt 0.841844 0.028269
vt 0.883337 0.050447
vt 0.919706 0.080294
vt 0.949553 0.116663
vt 0.971731 0.158156
vt 0.985388 0.203178
vt 0.990000 0.250000
vt 0.985388 0.296822
vt 0.971731 0.341844
vt 0.949553 0.383337
vt 0.919706 0.419706
vt 0.883337 0.449553
vt 0.116663 0.449553
vt 0.383337 0.449553
vt 0.906250 1.000000
vt 0.906250 0.500000
vt 0.093750 0.500000
vt 0.093750 1.000000
vt 0.883337 0.449553
vt 0.616663 0.449553
vt 0.116663 0.449553
vt 0.383337 0.449553
vt 0.906250 1.000000
vt 0.906250 0.500000
vt 0.093750 0.500000
vt 0.093750 1.000000
vt 0.883337 0.449553
vt 0.616663 0.449553
vn -0.0032 0.6359 0.7718
vn -0.0034 0.5572 0.8304
vn -0.0037 0.3845 0.9231
vn -0.0039 0.1970 0.9804
vn -0.0039 0.0020 1.0000
vn -0.0038 -0.1932 0.9812
vn -0.0035 -0.3809 0.9246
vn -0.0031 -0.5539 0.8326
vn -0.0026 -0.7057 0.7085
vn -0.0020 -0.8304 0.5572
vn -0.0012 -0.9231 0.3845
vn -0.0005 -0.9804 0.1970
vn 0.0003 -1.0000 0.0020
vn 0.0010 -0.9812 -0.1932
vn 0.0017 -0.9246 -0.3809
vn 0.0024 -0.8326 -0.5539
vn 0.0030 -0.7085 -0.7057
vn 0.0034 -0.5572 -0.8304
vn 0.0037 -0.3845 -0.9231
vn 0.0039 -0.1970 -0.9804
vn 0.0039 -0.0020 -1.0000
vn 0.0038 0.1932 -0.9812
vn 0.0035 0.3809 -0.9246
vn 0.0031 0.5539 -0.8326
vn 0.0026 0.7057 -0.7085
vn 0.0020 0.8304 -0.5572
vn 0.0016 0.8810 -0.4731
vn 0.9997 0.0232 0.0048
vn 1.0000 0.0003 0.0039
vn 0.9997 0.0231 0.0048
vn -0.9997 0.0225 -0.0030
vn -1.0000 -0.0003 -0.0039
vn -0.9997 0.0226 -0.0030
vn 0.9986 0.0525 -0.0001
vn 0.9986 0.0529 0.0002
vn -0.0038 -0.1282 0.9917
vn 0.0037 0.2667 -0.9638
vn -0.9986 0.0524 -0.0076
vn -0.9986 0.0520 -0.0079
vn 0.9990 0.0444 -0.0067
vn -0.0034 0.5606 0.8281
vn 0.0035 -0.5078 -0.8615
vn -0.9989 0.0438 -0.0145
vn 0.0010 0.9445 -0.3285
usemtl None
s 1
f 1/1/1 3/2/2 4/3/2 2/4/1
f 3/2/2 5/5/3 6/6/3 4/3/2
f 5/5/3 7/7/4 8/8/4 6/6/3
f 7/7/4 9/9/5 10/10/5 8/8/4
f 9/9/5 11/11/6 12/12/6 10/10/5
f 11/11/6 13/13/7 14/14/7 12/12/6
f 13/13/7 15/15/8 16/16/8 14/14/7
f 15/15/8 17/17/9 18/18/9 16/16/8
f 17/17/9 19/19/10 20/20/10 18/18/9
f 19/19/10 21/21/11 22/22/11 20/20/10
f 21/21/11 23/23/12 24/24/12 22/22/11
f 23/23/12 25/25/13 26/26/13 24/24/12
f 25/25/13 27/27/14 28/28/14 26/26/13
f 27/27/14 29/29/15 30/30/15 28/28/14
f 29/29/15 31/31/16 32/32/16 30/30/15
f 31/31/16 33/33/17 34/34/17 32/32/16
f 33/33/17 35/35/18 36/36/18 34/34/17
f 35/35/18 37/37/19 38/38/19 36/36/18
f 37/37/19 39/39/20 40/40/20 38/38/19
f 39/39/20 41/41/21 42/42/21 40/40/20
f 41/41/21 43/43/22 44/44/22 42/42/21
f 43/43/22 45/45/23 46/46/23 44/44/22
f 45/45/23 47/47/24 48/48/24 46/46/23
f 47/47/24 49/49/25 50/50/25 48/48/24
f 49/49/25 51/51/26 52/52/26 50/50/25
f 51/51/26 53/53/27 54/54/27 52/52/26
f 2/55/28 4/56/29 6/57/29 8/58/29 10/59/29 12/60/29 14/61/29 16/62/29 18/63/29 20/64/29 22/65/29 24/66/29 26/67/29 28/68/29 30/69/29 32/70/29 34/71/29 36/72/29 38/73/29 40/74/29 42/75/29 44/76/29 46/77/29 48/78/29 50/79/29 52/80/29 54/81/30
f 53/82/31 51/83/32 49/84/32 47/85/32 45/86/32 43/87/32 41/88/32 39/89/32 37/90/32 35/91/32 33/92/32 31/93/32 29/94/32 27/95/32 25/96/32 23/97/32 21/98/32 19/99/32 17/100/32 15/101/32 13/102/32 11/103/32 9/104/32 7/105/32 5/106/32 3/107/32 1/108/33
f 54/81/30 58/109/34 56/110/35 2/55/28
f 2/4/36 56/111/36 55/112/36 1/1/36
f 53/53/37 57/113/37 58/114/37 54/54/37
f 1/108/33 55/115/38 57/116/39 53/82/31
f 58/109/34 62/117/40 60/118/40 56/110/35
f 56/111/41 60/119/41 59/120/41 55/112/41
f 57/113/42 61/121/42 62/122/42 58/114/42
f 55/115/38 59/123/43 61/124/43 57/116/39
f 61/121/44 59/120/44 60/118/44 62/122/44
